<svg viewBox="0 0 535 106" fill="none" xmlns="http://www.w3.org/2000/svg">
<g class="c-logo__sygnet">
<path d="M125.3 72.9C120.8 72.2 116.3 73.1 111.8 73.3C103.3 74.2 94.7999 75.4 86.4999 77.3C81.6999 77 77.8999 80 73.0999 79.7C68.1999 80.6 63.8999 84 58.6999 84C55.1999 84.8 51.7999 86.7 48.4999 86.9C44.2999 88.3 40.0999 90.2 36.0999 92.1C33.4999 95.2 26.8999 94.7 26.5999 99.5C28.5999 103.2 32.8999 104.7 36.0999 101.5C40.2999 99.3 44.4999 96.4 49.2999 95.6C52.5999 93.8 56.6999 93.7 60.1999 92C64.3999 90.8 68.4999 89.1 72.7999 88.6C76.6999 87.7 80.2999 85.6 84.2999 85.4C88.2999 83.5 91.9999 85.3 96.1999 83.9C101.4 82.4 106.6 81 112.1 81.5C116.5 82 120.8 79.1 125.2 80.4C131 81.1 137 79.3 142.4 78.9C145.1 76.5 147 69.6 141.2 71.7C135.9 72.7 130.5 71.7 125.3 72.9V72.9Z" fill="#B3DB18"/>
<path d="M188.4 14.5C190.5 8.99998 182.1 12.5 179.8 13.9C174.4 17.4 170.6 22.6 166.7 27.6C163.4 30.7 163.2 35.4 160.8 39.1C159.2 44.1 160.7 49.3 160 54.4C159.8 58.7 159.9 63 160.5 67.3C160.9 71.3 160.9 75.3 162.4 79C163.2 82.6 164 86.3 165.8 89.2C167.5 91.6 173.9 94.2 174.3 89.7C173.6 85.6 170.6 82.4 170.4 78.1C169.3 73.3 167.2 68.8 167.8 63.8C167.3 58.9 168.2 54 168.1 49.1C168.7 44.4 170.4 39.9 171.5 35.2C173.8 29.1 178.2 23.8 183.5 20.1C184.6 19.1 190.8 14.9 188.4 14.5V14.5ZM165.6 3.89998C162.7 0.299978 158.1 2.79998 156.7 5.79998C152.8 7.49998 153.4 13.2 154.6 16.4C153.8 18.5 159.7 21.3 162.3 19.8C165 16.4 162.8 13.1 164.2 9.39998C164.8 7.59998 165.6 5.79998 165.6 3.89998V3.89998ZM153.9 28C151.7 24.9 150.8 21.3 147.7 18.8C142.4 13.7 137.9 7.09998 130.6 4.79998C127.4 3.19998 122.1 3.19998 124.3 7.39998C123.3 9.49998 130 10.6 131.6 13C135 16.2 138.8 19 141.1 23.1C144.3 28.1 146.5 33.6 148.8 38.9C150.7 43.2 149.2 48.6 150 52.5C149.4 56.6 149 60.7 147.6 64.9C148 68.8 144.7 71.6 144.5 75.4C143.8 78.1 141.5 78.7 142 80.8C139.9 83.9 139.6 87 137.4 90C135.6 92.7 129.9 96.2 134.7 99.2C140.2 101.3 142.7 95.7 145 92C147.2 89.3 149 86 150.2 82.8C151.7 78.6 154.3 74.6 154.6 70C155.4 66.3 156.5 62.7 157.1 58.9C157.1 55 158 51.1 158.1 47.3C157.3 43.6 157.7 39.9 157.4 36.1C157.4 33 154.1 30.7 153.9 28V28Z" fill="#B3DB00"/>
<path d="M124.7 30.9C121.9 27.3 117.6 25.4 114.6 22.1C111.1 18.8 107 16.2 103.8 12.5C100.6 9.39999 97.3 6.59999 94.2 3.49999C91 -7.7486e-06 87.2 2.29999 85.2 5.59999C82 7.59999 80.4 11.3 77.1 12.8C74.4 15.8 71.2 18.1 68 20.6C65.2 24 61.7 26.4 58.4 29.3C55.3 32.1 52.2 34.9 49.3 37.9C44.6 40.4 52.3 42.8 50.6 46.6C52.1 50.1 50.7 52.8 51.6 56.7C50.4 60.8 51.1 64.8 50.9 69C50.5 72.8 51 77.3 50.7 80.6C51.2 83.3 51.8 87.7 55.6 85.3C61.8 85.2 56.7 78.8 58.3 75.2C58.7 71.2 58.8 66.6 58.2 62.7C58 58.1 59.3 53.8 58.6 48.9C58.3 44.5 57.6 39.1 62.2 36.6C65.2 34 68.6 31.9 71.5 29.2C74 26 77.6 24.2 80.1 20.9C83 19.1 84.7 16.3 87.6 14.5C89.8 12.8 91.9 10.1 93.9 13.9C96.9 17.1 100.3 19.5 103.4 22.7C106.6 24.9 108.8 27.9 112.1 30.2C114.7 33.5 119.6 35.4 120.9 39.9C121.6 44.8 119.9 49.8 120.8 54.7C120.5 59.1 122 62.9 120.9 67.3C121.2 69.5 119.7 73.5 123.8 73C126.5 72.9 131 73.5 128.6 69.9C127.9 65.2 129.3 60.6 128.1 56.1C128.4 52.3 127.7 48.5 128.7 44.9C127.7 41.2 134.4 38.5 130.4 36.1C128.7 33.9 126.6 32.5 124.7 30.9V30.9Z" fill="#F89C14"/>
<path d="M52.7 12.3C52.9 8.10001 48.5 5.40001 44.9 4.40001C41.2 3.70001 37.1 2.80001 33.6 4.90001C30.2 5.90001 27 7.70001 24.3 10C22.9 12.8 20.7 15.3 20.6 18.3C22 20.5 25.3 23.3 20.8 24.6C17.9 27.2 13.9 27.9 10.9 30.3C7.59996 32.7 5.19996 35.5 3.39996 38.7C2.99996 42.1 0.0999645 44.7 0.599965 48.5C0.0999645 51.9 1.99996 55.5 4.19996 58.1C8.49996 62.7 14.3 66.5 20.8 66.5C24.1 65.3 28.3 68.3 31.1 65.6C35.1 66.6 32.2 70.7 33.5 73.7C33.6 76.7 32.7 80 33.4 82.8C33 86.2 32.9 89.3 34.4 92.5C34.8 94.3 38.4 90.1 40.4 90.3C42.4 87.5 39.6 83.9 41 80.9C41.8 79.1 40.1 78.6 41.2 76.9C40.2 74.7 42 72.1 40.8 70.1C41.2 67.3 40.6 64.2 40.9 61.5C38.7 58.6 34.7 57.4 31.2 58.6C26.6 57.6 21.8 60.6 17.3 58.5C13.3 58.8 8.19996 56.5 8.79996 51.8C7.39996 48.3 9.69997 45.8 10.6 42.7C12.4 38.4 16.7 35.9 20.7 33.9C25.1 31.8 29.1 28.5 34.1 28.2C37 28 43.7 27.4 40.3 23.2C38.6 18.9 33.9 20.2 30.5 20.9C26.4 20.6 30.6 14.7 33 14.1C36.5 12.1 40.5 11.5 44.5 11.9C47.2 12.1 50.6 15.3 52.7 12.3V12.3Z" fill="#B3DB18"/>
</g>
<g class="c-logo__text">
<path d="M244.8 62V41C248.4 41.4 252.1 41.6 256.1 41.6C262.8 41.6 267.4 40.4 269.9 37.9C272.4 35.4 273.7 30.7 273.7 23.9C273.7 17.1 272.4 12.3 269.7 9.9C267 7.3 262 6 254.8 6C246.2 6 239.5 6.2 234.8 6.7V62H244.8ZM244.8 14.3H254.6C258.1 14.3 260.5 15 261.8 16.3C263.1 17.6 263.7 20.1 263.7 23.9C263.7 27.6 263.1 30.2 261.8 31.5C260.5 32.8 258.1 33.5 254.6 33.5H244.8V14.3V14.3ZM306.8 21.6C301.6 21.6 296.2 23.9 290.6 28.5L289.7 22.7H282.1V62H291.9V34.3C297.8 32 302.1 30.8 304.9 30.8H307.7L308.7 21.7H306.8V21.6V21.6ZM317.8 26.4C314.9 29.5 313.4 34.9 313.4 42.4C313.4 49.9 314.9 55.2 317.8 58.4C320.7 61.5 325.7 63.1 332.8 63.1C339.8 63.1 344.8 61.5 347.7 58.4C350.6 55.3 352.1 50 352.1 42.4C352.1 34.9 350.6 29.5 347.7 26.4C344.8 23.3 339.8 21.7 332.8 21.7C325.7 21.6 320.7 23.2 317.8 26.4ZM340.1 32.1C341.4 33.9 342.1 37.3 342.1 42.4C342.1 47.4 341.4 50.8 340.1 52.6C338.8 54.4 336.4 55.3 332.9 55.3C329.3 55.3 326.8 54.4 325.5 52.6C324.2 50.8 323.6 47.4 323.6 42.4C323.6 37.3 324.2 33.9 325.5 32.1C326.8 30.3 329.2 29.4 332.9 29.4C336.4 29.4 338.8 30.3 340.1 32.1V32.1ZM400 22.8H387.6C384.9 22.1 381.7 21.7 377.8 21.7C371.2 21.7 366.6 22.7 364 24.6C361.4 26.5 360.1 29.8 360.1 34.4C360.1 39.7 361.9 43.2 365.6 45C363.7 46.2 362.7 48.1 362.4 50.7C362.1 53.3 362.8 55.4 364.6 57.1C362.4 58.3 360.8 59.5 359.9 60.8C358.9 62.1 358.5 63.7 358.5 65.8C358.5 70.3 359.9 73.5 362.7 75.2C365.5 76.9 370.7 77.8 378.3 77.8C385.8 77.8 390.9 76.9 393.8 75.1C396.7 73.3 398.1 70 398.1 65.2C398.1 61.7 397.3 59.1 395.6 57.3C393.9 55.5 391.2 54.3 387.3 53.8L373 51.8C371.6 51.6 370.7 51 370.3 49.8C369.9 48.6 370.1 47.5 370.7 46.6C372.6 47 375 47.2 377.9 47.2C384.5 47.2 389 46.2 391.7 44.3C394.3 42.4 395.6 39.1 395.6 34.6C395.6 32.1 395.3 30.1 394.6 28.4L399.7 27.8L400 22.8V22.8ZM368.8 34.3C368.8 32.1 369.4 30.6 370.7 29.8C372 29 374.3 28.6 377.6 28.6C380.9 28.6 383.2 29 384.4 29.8C385.7 30.6 386.3 32.1 386.3 34.3C386.3 36.5 385.7 38 384.4 38.9C383.1 39.8 380.9 40.2 377.6 40.2C374.3 40.2 372 39.8 370.7 38.9C369.5 38 368.8 36.5 368.8 34.3ZM387.3 61.6C388.1 62.1 388.5 63.1 388.5 64.7C388.5 66.9 387.8 68.3 386.5 68.9C385.2 69.5 382.3 69.9 378 69.9C373.7 69.9 370.9 69.6 369.6 69C368.3 68.4 367.6 66.9 367.6 64.6C367.6 62.8 368.6 60.9 370.6 59.1L381.8 60.5C384.7 60.8 386.5 61.1 387.3 61.6V61.6ZM441.7 35.2C441.7 30.7 440.3 27.3 437.5 25C434.7 22.7 430.1 21.6 423.9 21.6C417.1 21.6 412.3 23.1 409.3 26.2C406.4 29.3 404.9 34.6 404.9 42.2C404.9 49.7 406.4 55 409.4 58.1C412.4 61.2 417.4 62.8 424.5 62.8C431.6 62.8 437 61.9 440.7 60.2L439.8 54C434.4 54.6 429.7 55 425.7 55C422.2 55 419.6 54.4 418.1 53.3C416.6 52.2 415.6 49.9 415.2 46.5H431.2C438.2 46.4 441.7 42.7 441.7 35.2V35.2ZM417.2 31.4C418.5 30 420.9 29.3 424.3 29.3C427.2 29.3 429.3 29.7 430.4 30.6C431.5 31.5 432.1 32.9 432.1 35.1C432.1 38.1 430.9 39.7 428.6 39.7H415.2C415.2 35.6 415.9 32.8 417.2 31.4V31.4ZM450.5 22.8V62H460.3V34.7C463.3 33 465.7 31.8 467.6 31C469.5 30.3 471.3 29.9 473.2 29.9C474.8 29.9 475.9 30.3 476.5 31.1C477.1 31.9 477.4 33.4 477.4 35.5V62H487.2V32.5C487.2 29 486.3 26.3 484.4 24.4C482.5 22.5 479.9 21.6 476.4 21.6C471.2 21.6 465.5 23.9 459.4 28.5L458.8 22.7H450.5V22.8V22.8ZM500.4 26.4C497.5 29.5 496 34.9 496 42.4C496 49.9 497.5 55.2 500.4 58.4C503.3 61.5 508.3 63.1 515.4 63.1C522.4 63.1 527.4 61.5 530.3 58.4C533.2 55.3 534.7 50 534.7 42.4C534.7 34.9 533.2 29.5 530.3 26.4C527.4 23.3 522.4 21.7 515.4 21.7C508.3 21.6 503.3 23.2 500.4 26.4ZM522.6 32.1C523.9 33.9 524.6 37.3 524.6 42.4C524.6 47.4 523.9 50.8 522.6 52.6C521.3 54.4 518.9 55.3 515.4 55.3C511.8 55.3 509.3 54.4 508 52.6C506.7 50.8 506.1 47.4 506.1 42.4C506.1 37.3 506.7 33.9 508 32.1C509.3 30.3 511.7 29.4 515.4 29.4C518.9 29.4 521.3 30.3 522.6 32.1V32.1ZM251.8 85.6L249.6 97.2C249.6 97.4 249.5 97.7 249.4 98.1C249.3 98.5 249.3 98.8 249.3 99H248.8C248.7 98.3 248.6 97.7 248.5 97.1L246.3 86.2C246.3 86 246.2 85.8 246 85.7C245.8 85.6 245.7 85.5 245.5 85.5H243.1C242.6 85.5 242.4 85.7 242.3 86.2L240.1 97C240 97.7 239.8 98.3 239.8 98.9H239.3C239.2 97.9 239.1 97.2 239 97L236.8 85.4H234.5L237.4 99.9C237.5 100.3 237.8 100.5 238.2 100.5H240.7C240.9 100.5 241.1 100.4 241.3 100.3C241.5 100.2 241.6 100 241.6 99.8L243.8 88.6L244.1 86.9H244.6C244.7 87.3 244.8 87.9 244.9 88.6L247.1 99.8C247.2 100.2 247.5 100.5 248 100.5H250.4C250.8 100.5 251.1 100.3 251.3 99.9L254.2 85.4H251.8V85.6V85.6ZM255.5 95.4C255.5 97.5 255.9 98.9 256.7 99.8C257.5 100.7 258.8 101.1 260.7 101.1C262.6 101.1 263.9 100.7 264.7 99.8C265.5 98.9 265.9 97.5 265.9 95.4C265.9 93.3 265.5 91.9 264.7 91C263.9 90.1 262.6 89.7 260.7 89.7C258.8 89.7 257.5 90.1 256.7 91C255.9 91.9 255.5 93.3 255.5 95.4ZM263.6 95.4C263.6 96.9 263.4 97.9 263 98.4C262.6 98.9 261.8 99.2 260.7 99.2C259.6 99.2 258.8 98.9 258.4 98.4C258 97.9 257.8 96.8 257.8 95.4C257.8 93.9 258 92.9 258.4 92.3C258.8 91.8 259.6 91.5 260.7 91.5C261.8 91.5 262.6 91.8 263 92.3C263.4 92.9 263.6 93.9 263.6 95.4ZM268.6 85.3V100.7H270.7V93.1C271.6 92.5 272.4 92.1 273 91.9C273.6 91.7 274.1 91.5 274.7 91.5C275.2 91.5 275.6 91.6 275.8 91.9C276 92.2 276.1 92.6 276.1 93.3V100.7H278.2V92.6C278.2 91.6 278 90.9 277.5 90.4C277 89.9 276.3 89.6 275.3 89.6C273.9 89.6 272.3 90.2 270.6 91.5C270.7 90.8 270.8 90.1 270.8 89.4V85.2H268.6V85.3V85.3ZM281.4 90V100.7H283.5V93.1C284.5 92.5 285.2 92.1 285.8 91.9C286.4 91.7 286.9 91.5 287.5 91.5C288 91.5 288.4 91.6 288.6 91.9C288.8 92.2 288.9 92.6 288.9 93.3V100.7H291V92.6C291 91.6 290.8 90.9 290.3 90.4C289.8 89.9 289.1 89.6 288.1 89.6C286.6 89.6 285 90.2 283.3 91.5L283.2 89.9H281.4V90V90ZM301.4 90V97.8C299.9 98.8 298.7 99.2 297.8 99.2C297.2 99.2 296.8 99.1 296.6 98.8C296.4 98.5 296.3 98.1 296.3 97.4V90H294.2V98.1C294.2 100.1 295.2 101.1 297.1 101.1C298.6 101.1 300.1 100.5 301.7 99.3L301.9 100.8H303.6V90H301.4V90ZM306.8 90V100.7H308.9V93.1C309.9 92.5 310.6 92.1 311.2 91.9C311.8 91.7 312.3 91.5 312.9 91.5C313.4 91.5 313.8 91.6 314 91.9C314.2 92.2 314.3 92.6 314.3 93.3V100.7H316.4V92.6C316.4 91.6 316.2 90.9 315.7 90.4C315.2 89.9 314.5 89.6 313.5 89.6C312 89.6 310.4 90.2 308.7 91.5L308.6 89.9H306.8V90V90ZM329.9 90H326.6C326 89.8 325.1 89.7 324 89.7C322.3 89.7 321 90 320.3 90.5C319.6 91 319.3 91.9 319.3 93.2C319.3 94.6 319.8 95.6 320.7 96C320.2 96.4 319.9 96.9 319.9 97.6C319.8 98.3 320.1 98.9 320.6 99.3C320 99.7 319.5 100 319.3 100.4C319 100.8 318.9 101.2 318.9 101.8C318.9 103 319.3 103.9 320 104.4C320.8 104.9 322.1 105.1 324.1 105.1C326.1 105.1 327.4 104.9 328.2 104.4C329 103.9 329.3 103 329.3 101.8C329.3 100.9 329.1 100.2 328.7 99.7C328.3 99.2 327.5 98.9 326.5 98.8L322.5 98.2C322 98.1 321.7 97.9 321.6 97.5C321.5 97.1 321.6 96.8 321.8 96.5C322.4 96.6 323.1 96.7 323.9 96.7C325.6 96.7 326.8 96.4 327.5 95.9C328.2 95.4 328.5 94.5 328.5 93.3C328.5 92.6 328.4 91.9 328.1 91.4L329.6 91.2L329.9 90V90ZM321.8 94.6C321.4 94.3 321.2 93.9 321.2 93.2C321.2 92.5 321.4 92 321.8 91.8C322.2 91.6 322.9 91.4 323.9 91.4C324.9 91.4 325.6 91.5 326 91.8C326.4 92.1 326.6 92.5 326.6 93.2C326.6 93.9 326.4 94.3 326 94.6C325.6 94.9 324.9 95 323.9 95C323 95 322.2 94.9 321.8 94.6ZM326.9 100.7C327.1 100.9 327.2 101.2 327.2 101.7C327.2 102.4 327 102.8 326.6 103.1C326.2 103.3 325.4 103.4 324.1 103.4C322.8 103.4 321.9 103.3 321.5 103.1C321.1 102.9 320.9 102.4 320.9 101.7C320.9 101 321.2 100.4 321.9 99.9L325.4 100.4C326.1 100.4 326.6 100.5 326.9 100.7V100.7ZM337.5 96.7C337.6 96.7 337.8 96.8 338 96.9C338.2 97 338.3 97.1 338.4 97.3C338.5 97.5 338.5 97.6 338.5 97.9C338.5 98.4 338.3 98.8 337.9 99C337.5 99.2 336.7 99.3 335.5 99.3C333.9 99.3 332.6 99.3 331.8 99.2L331.6 100.8C332.9 101 334.4 101.1 335.9 101.1C337.6 101.1 338.8 100.9 339.5 100.5C340.2 100.1 340.5 99.3 340.5 98C340.5 97.1 340.3 96.4 339.9 96C339.5 95.6 338.9 95.2 338 95L335 94.3C334.6 94.2 334.4 94.1 334.3 94.1C334.2 94.1 334.1 94 333.9 93.9C333.7 93.8 333.6 93.7 333.6 93.5C333.6 93.3 333.5 93.1 333.5 92.9C333.5 92.4 333.7 92 334 91.9C334.3 91.8 335 91.7 336 91.7C336.5 91.7 337.8 91.7 340.1 91.8L340.3 90.3C339 90.1 337.4 90 335.7 89.9C334.1 89.9 333 90.1 332.4 90.5C331.8 90.9 331.4 91.7 331.4 92.9C331.4 93.8 331.6 94.5 331.9 94.9C332.3 95.4 332.9 95.7 333.8 95.9L336.8 96.6C337.2 96.6 337.4 96.7 337.5 96.7V96.7ZM353.4 90H350.1C349.5 89.8 348.6 89.7 347.5 89.7C345.8 89.7 344.5 90 343.8 90.5C343.1 91 342.8 91.9 342.8 93.2C342.8 94.6 343.3 95.6 344.2 96C343.7 96.4 343.4 96.9 343.4 97.6C343.3 98.3 343.6 98.9 344.1 99.3C343.5 99.7 343 100 342.8 100.4C342.5 100.8 342.4 101.2 342.4 101.8C342.4 103 342.8 103.9 343.5 104.4C344.3 104.9 345.6 105.1 347.6 105.1C349.6 105.1 350.9 104.9 351.7 104.4C352.5 103.9 352.8 103 352.8 101.8C352.8 100.9 352.6 100.2 352.2 99.7C351.8 99.2 351 98.9 350 98.8L346 98.2C345.5 98.1 345.2 97.9 345.1 97.5C345 97.1 345.1 96.8 345.3 96.5C345.9 96.6 346.6 96.7 347.4 96.7C349.1 96.7 350.3 96.4 351 95.9C351.7 95.4 352 94.5 352 93.3C352 92.6 351.9 91.9 351.6 91.4L353.1 91.2L353.4 90V90ZM345.4 94.6C345 94.3 344.8 93.9 344.8 93.2C344.8 92.5 345 92 345.4 91.8C345.8 91.6 346.5 91.4 347.5 91.4C348.5 91.4 349.2 91.5 349.6 91.8C350 92.1 350.2 92.5 350.2 93.2C350.2 93.9 350 94.3 349.6 94.6C349.2 94.9 348.5 95 347.5 95C346.5 95 345.8 94.9 345.4 94.6ZM350.4 100.7C350.6 100.9 350.7 101.2 350.7 101.7C350.7 102.4 350.5 102.8 350.1 103.1C349.7 103.3 348.9 103.4 347.6 103.4C346.3 103.4 345.4 103.3 345 103.1C344.6 102.9 344.4 102.4 344.4 101.7C344.4 101 344.7 100.4 345.4 99.9L348.9 100.4C349.7 100.4 350.2 100.5 350.4 100.7V100.7ZM364.7 93.3C364.7 92.1 364.3 91.2 363.6 90.6C362.9 90 361.7 89.7 360 89.7C358.2 89.7 357 90.1 356.2 91C355.4 91.9 355 93.3 355 95.4C355 97.5 355.4 98.9 356.2 99.8C357 100.7 358.3 101.1 360.2 101.1C362.1 101.1 363.5 100.9 364.4 100.5L364.2 99.1C362.6 99.3 361.4 99.4 360.4 99.4C359.3 99.4 358.5 99.2 358.1 98.8C357.6 98.4 357.3 97.7 357.2 96.6H362C363.8 96.4 364.7 95.4 364.7 93.3V93.3ZM357.9 92.2C358.3 91.8 359 91.5 360.1 91.5C361 91.5 361.6 91.6 362 91.9C362.4 92.2 362.5 92.6 362.6 93.3C362.6 94.3 362.2 94.7 361.5 94.7H357.2C357.3 93.5 357.5 92.6 357.9 92.2V92.2ZM367.4 90V100.7H369.5V93.1C370.5 92.5 371.2 92.1 371.8 91.9C372.4 91.7 372.9 91.5 373.5 91.5C374 91.5 374.4 91.6 374.6 91.9C374.8 92.2 374.9 92.6 374.9 93.3V100.7H377V92.6C377 91.6 376.8 90.9 376.3 90.4C375.8 89.9 375.1 89.6 374.1 89.6C372.6 89.6 371 90.2 369.3 91.5L369.2 89.9H367.4V90V90ZM379.7 95.4C379.7 97.5 380.1 98.9 380.9 99.8C381.7 100.7 383 101.1 384.9 101.1C386.8 101.1 388.1 100.7 388.9 99.8C389.7 98.9 390.1 97.5 390.1 95.4C390.1 93.3 389.7 91.9 388.9 91C388.1 90.1 386.8 89.7 384.9 89.7C383 89.7 381.7 90.1 380.9 91C380.1 91.9 379.7 93.3 379.7 95.4ZM387.7 95.4C387.7 96.9 387.5 97.9 387.1 98.4C386.7 98.9 385.9 99.2 384.8 99.2C383.7 99.2 382.9 98.9 382.5 98.4C382.1 97.9 381.9 96.8 381.9 95.4C381.9 93.9 382.1 92.9 382.5 92.3C382.9 91.8 383.7 91.5 384.8 91.5C385.9 91.5 386.7 91.8 387.1 92.3C387.5 92.9 387.7 93.9 387.7 95.4ZM398.3 96.7C398.4 96.7 398.6 96.8 398.8 96.9C399 97 399.1 97.1 399.2 97.3C399.3 97.5 399.3 97.6 399.3 97.9C399.3 98.4 399.1 98.8 398.7 99C398.3 99.2 397.5 99.3 396.3 99.3C394.7 99.3 393.4 99.3 392.6 99.2L392.4 100.8C393.7 101 395.2 101.1 396.7 101.1C398.4 101.1 399.6 100.9 400.3 100.5C401 100.1 401.3 99.3 401.3 98C401.3 97.1 401.1 96.4 400.7 96C400.3 95.6 399.7 95.2 398.8 95L395.8 94.3C395.4 94.2 395.2 94.1 395.1 94.1C395 94.1 394.9 94 394.7 93.9C394.5 93.8 394.4 93.7 394.4 93.5C394.4 93.3 394.3 93.1 394.3 92.9C394.3 92.4 394.5 92 394.8 91.9C395.1 91.8 395.8 91.7 396.8 91.7C397.3 91.7 398.6 91.7 400.9 91.8L401.1 90.3C399.8 90.1 398.2 90 396.5 89.9C394.9 89.9 393.8 90.1 393.2 90.5C392.6 90.9 392.2 91.7 392.2 92.9C392.2 93.8 392.4 94.5 392.7 94.9C393.1 95.4 393.7 95.7 394.6 95.9L397.6 96.6C398 96.6 398.2 96.7 398.3 96.7V96.7ZM409.5 96.7C409.6 96.7 409.8 96.8 410 96.9C410.2 97 410.3 97.1 410.4 97.3C410.5 97.5 410.5 97.6 410.5 97.9C410.5 98.4 410.3 98.8 409.9 99C409.5 99.2 408.7 99.3 407.5 99.3C405.9 99.3 404.6 99.3 403.8 99.2L403.6 100.8C404.9 101 406.4 101.1 407.9 101.1C409.6 101.1 410.8 100.9 411.5 100.5C412.2 100.1 412.5 99.3 412.5 98C412.5 97.1 412.3 96.4 411.9 96C411.5 95.6 410.9 95.2 410 95L407 94.3C406.6 94.2 406.4 94.1 406.3 94.1C406.2 94.1 406.1 94 405.9 93.9C405.7 93.8 405.6 93.7 405.6 93.5C405.6 93.3 405.5 93.1 405.5 92.9C405.5 92.4 405.7 92 406 91.9C406.3 91.8 407 91.7 408 91.7C408.5 91.7 409.8 91.7 412.1 91.8L412.3 90.3C411 90.1 409.4 90 407.7 89.9C406.1 89.9 405 90.1 404.4 90.5C403.8 90.9 403.4 91.7 403.4 92.9C403.4 93.8 403.6 94.5 403.9 94.9C404.3 95.4 404.9 95.7 405.8 95.9L408.8 96.6C409.2 96.6 409.4 96.7 409.5 96.7V96.7ZM424.3 93.3C424.3 92.1 423.9 91.2 423.2 90.6C422.5 90 421.3 89.7 419.6 89.7C417.8 89.7 416.6 90.1 415.8 91C415 91.8 414.6 93.3 414.6 95.4C414.6 97.5 415 98.9 415.8 99.8C416.6 100.7 417.9 101.1 419.8 101.1C421.7 101.1 423.1 100.9 424 100.5L423.8 99.1C422.2 99.3 421 99.4 420 99.4C418.9 99.4 418.1 99.2 417.7 98.8C417.2 98.4 416.9 97.7 416.8 96.6H421.6C423.5 96.4 424.3 95.4 424.3 93.3V93.3ZM417.5 92.2C417.9 91.8 418.6 91.5 419.7 91.5C420.6 91.5 421.2 91.6 421.6 91.9C422 92.2 422.1 92.6 422.2 93.3C422.2 94.3 421.8 94.7 421.1 94.7H416.8C416.9 93.5 417.1 92.6 417.5 92.2V92.2ZM427 90V100.7H429.1V93.1C430.1 92.5 430.8 92.1 431.4 91.9C432 91.7 432.5 91.5 433.1 91.5C433.6 91.5 434 91.6 434.2 91.9C434.4 92.2 434.5 92.6 434.5 93.3V100.7H436.6V92.6C436.6 91.6 436.4 90.9 435.9 90.4C435.4 89.9 434.7 89.6 433.7 89.6C432.2 89.6 430.6 90.2 428.9 91.5L428.8 89.9H427V90V90ZM445.4 96.7C445.5 96.7 445.7 96.8 445.9 96.9C446.1 97 446.2 97.1 446.3 97.3C446.4 97.5 446.4 97.6 446.4 97.9C446.4 98.4 446.2 98.8 445.8 99C445.4 99.2 444.6 99.3 443.4 99.3C441.8 99.3 440.5 99.3 439.7 99.2L439.5 100.8C440.8 101 442.3 101.1 443.8 101.1C445.5 101.1 446.7 100.9 447.4 100.5C448.1 100.1 448.4 99.3 448.4 98C448.4 97.1 448.2 96.4 447.8 96C447.4 95.6 446.8 95.2 445.9 95L442.9 94.3C442.5 94.2 442.3 94.1 442.2 94.1C442.1 94.1 442 94 441.8 93.9C441.6 93.8 441.5 93.7 441.5 93.5C441.5 93.3 441.4 93.1 441.4 92.9C441.4 92.4 441.6 92 441.9 91.9C442.2 91.8 442.9 91.7 443.9 91.7C444.4 91.7 445.7 91.7 448 91.8L448.2 90.3C446.9 90.1 445.3 90 443.6 89.9C442 89.9 440.9 90.1 440.3 90.5C439.7 90.9 439.3 91.7 439.3 92.9C439.3 93.8 439.5 94.5 439.8 94.9C440.2 95.4 440.8 95.7 441.7 95.9L444.7 96.6C445 96.6 445.3 96.7 445.4 96.7V96.7ZM456 99.2C454.8 99.2 453.9 98.9 453.4 98.4C452.9 97.9 452.7 96.8 452.7 95.4C452.7 93.9 452.9 92.9 453.4 92.4C453.9 91.9 454.7 91.6 456 91.6C456.8 91.6 457.8 91.6 458.9 91.7L459.2 90.3C458.3 89.9 457.1 89.8 455.6 89.8C453.7 89.8 452.4 90.2 451.6 91.1C450.8 92 450.4 93.4 450.4 95.5C450.4 97.6 450.8 99 451.6 99.9C452.4 100.7 453.7 101.2 455.6 101.2C457 101.2 458.3 101 459.3 100.6L459.1 99.2C458.3 99.1 457.2 99.2 456 99.2V99.2ZM461.8 85.3V100.7H463.9V93.1C464.8 92.5 465.6 92.1 466.2 91.9C466.8 91.7 467.3 91.5 467.9 91.5C468.4 91.5 468.8 91.6 469 91.9C469.2 92.2 469.3 92.6 469.3 93.3V100.7H471.4V92.6C471.4 91.6 471.2 90.9 470.7 90.4C470.2 89.9 469.5 89.6 468.5 89.6C467.1 89.6 465.5 90.2 463.8 91.5C463.9 90.8 464 90.1 464 89.4V85.2H461.8V85.3V85.3ZM479.3 91.5C480.1 91.5 480.7 91.6 481 91.9C481.3 92.1 481.4 92.6 481.5 93.3V94.1H477.2C476.2 94.1 475.5 94.3 475 94.8C474.5 95.3 474.2 95.9 474.2 96.8V97.9C474.2 98.9 474.5 99.6 475.1 100.1C475.7 100.6 476.5 100.9 477.5 100.9C479.1 100.9 480.6 100.3 481.8 99L482 100.7H483.7V93.2C483.7 91.9 483.4 91 482.8 90.4C482.2 89.9 481.2 89.6 479.9 89.6C478.4 89.6 476.6 89.8 474.7 90.1L474.9 91.7C477 91.6 478.5 91.5 479.3 91.5V91.5ZM476.5 96.1C476.7 95.9 477 95.8 477.5 95.7H481.4V97.6C480.3 98.6 479 99.1 477.8 99.1C477.3 99.1 476.9 99 476.6 98.7C476.4 98.5 476.2 98.1 476.2 97.6V97C476.2 96.6 476.3 96.3 476.5 96.1ZM494 85.1C493.3 85 492.3 84.9 490.9 84.9C489.8 84.9 489 85.2 488.5 85.7C488 86.2 487.8 87 487.8 88.1V90L485.9 90.1V91.6H487.8V100.7H489.9V91.6H493.2V90H489.9V88.4C489.9 87.8 490 87.4 490.3 87.1C490.6 86.9 491 86.7 491.7 86.7H493.9L494 85.1V85.1ZM499.6 99C499.1 99 498.7 98.9 498.5 98.7C498.3 98.5 498.2 98.1 498.2 97.6V91.6H501.5V90H498.2V86.9H496.1V90L494.1 90.1V91.6H496.1V97.9C496.1 98.9 496.3 99.6 496.8 100.1C497.3 100.6 498 100.9 498.9 100.9C499.9 100.9 500.8 100.8 501.4 100.6L501.2 98.9H499.6V99V99ZM517.8 93.3C517.8 92.1 517.4 91.2 516.7 90.6C516 90 514.8 89.7 513.1 89.7C511.3 89.7 510.1 90.1 509.3 91C508.5 91.8 508.1 93.3 508.1 95.4C508.1 97.5 508.5 98.9 509.3 99.8C510.1 100.7 511.4 101.1 513.3 101.1C515.2 101.1 516.6 100.9 517.5 100.5L517.3 99.1C515.7 99.3 514.5 99.4 513.5 99.4C512.4 99.4 511.6 99.2 511.2 98.8C510.7 98.4 510.4 97.7 510.3 96.6H515.1C517 96.4 517.8 95.4 517.8 93.3ZM511 92.2C511.4 91.8 512.1 91.5 513.2 91.5C514.1 91.5 514.7 91.6 515.1 91.9C515.5 92.2 515.6 92.6 515.7 93.3C515.7 94.3 515.3 94.7 514.6 94.7H510.3C510.4 93.5 510.6 92.6 511 92.2V92.2ZM529.1 92V97.8C527.8 98.7 526.6 99.1 525.5 99.1C524.4 99.1 523.6 98.7 523.1 97.8C522.7 96.9 522.4 95.4 522.4 93.2C522.4 92.1 522.5 91.3 522.6 90.6C522.7 89.9 522.8 89.3 523 88.9C523.2 88.4 523.5 88.1 523.8 87.9C524.2 87.7 524.6 87.5 525 87.4C525.4 87.3 526 87.3 526.7 87.3C528 87.3 529.3 87.4 530.6 87.5L530.8 85.8C529.6 85.5 528.2 85.3 526.6 85.3C525 85.3 523.7 85.5 522.8 86C521.9 86.5 521.2 87.3 520.8 88.4C520.4 89.5 520.2 91.1 520.2 93.1C520.2 95.8 520.6 97.9 521.3 99.1C522 100.3 523.3 101 524.9 101C526.6 101 528.1 100.4 529.4 99.2L529.6 100.7H531.2V92H529.1V92Z" fill="#7F7F7F"/>
</g>
<defs>
<clipPath id="clip0_8_362">
<rect width="534.7" height="106" fill="white"/>
</clipPath>
</defs>
</svg>
